# 3ds Max Wavefront OBJ Exporter v0.97b - (c)2007 guruware
# File Created: 20.08.2014 20:11:15

#
# object Box001
#

v  -30.0000 -1.0000 30.0000
v  -30.0000 -1.0000 -30.0000
v  30.0000 -1.0000 -30.0000
v  30.0000 -1.0000 30.0000
v  17.0000 2.0000 19.0000
v  23.0000 2.0000 19.0000
v  23.0000 2.0000 12.0000
v  17.0000 2.0000 12.0000
v  30.0000 9.0000 30.0000
v  -30.0000 9.0000 30.0000
v  30.0000 9.0000 -30.0000
v  -30.0000 9.0000 -30.0000
v  29.0000 9.0000 29.0000
v  -29.0000 9.0000 29.0000
v  29.0000 9.0000 -29.0000
v  -29.0000 9.0000 -29.0000
v  29.0000 -0.0000 29.0000
v  -29.0000 -0.0000 29.0000
v  29.0000 0.0000 -29.0000
v  -29.0000 0.0000 -29.0000
v  23.0000 -0.0000 19.0000
v  11.0000 -0.0000 19.0000
v  11.0000 0.0000 -23.1995
v  11.0000 0.0000 -19.0000
v  17.0000 6.0000 -19.0000
v  17.0000 6.0000 -23.1995
v  -26.0000 9.0000 0.0000
v  -26.0000 9.0000 9.0000
v  -22.0000 9.0000 9.0000
v  -22.0000 9.0000 0.0000
v  23.0000 -0.0000 12.0000
v  11.0000 0.0000 12.0000
v  -26.0000 -0.0000 9.0000
v  -26.0000 0.0000 -0.0000
v  -10.0000 -0.0000 9.0000
v  -10.0000 0.0000 -0.0000
v  -26.0000 1.0000 9.0000
v  -26.0000 1.0000 -0.0000
v  -16.0000 1.0000 9.0000
v  -16.0000 1.0000 0.0000
v  -26.0000 3.0000 9.0000
v  -26.0000 3.0000 0.0000
v  -19.0000 3.0000 9.0000
v  -19.0000 3.0000 0.0000
v  -26.0000 6.0000 9.0000
v  -26.0000 6.0000 0.0000
v  -21.0000 6.0000 9.0000
v  -21.0000 6.0000 0.0000
v  23.0000 0.0000 -23.1995
v  11.0000 0.0000 6.1995
v  11.0000 0.0000 2.0000
v  11.0000 0.0000 1.0000
v  11.0000 0.0000 -3.0000
v  11.0000 0.0000 -4.0000
v  11.0000 0.0000 -8.0000
v  11.0000 0.0000 -9.0000
v  11.0000 0.0000 -13.0000
v  11.0000 0.0000 -14.0000
v  11.0000 0.0000 -18.0000
v  23.0000 -0.0000 6.1995
v  23.0000 0.0000 -19.0000
v  23.0000 0.0000 -18.0000
v  23.0000 0.0000 -14.0000
v  23.0000 0.0000 -13.0000
v  23.0000 0.0000 -9.0000
v  23.0000 0.0000 -8.0000
v  23.0000 0.0000 -4.0000
v  23.0000 0.0000 -3.0000
v  23.0000 -0.0000 1.0000
v  23.0000 -0.0000 2.0000
v  17.0000 1.0000 6.1995
v  17.0000 1.0000 2.0000
v  17.0000 2.0000 1.0000
v  17.0000 2.0000 -3.0000
v  17.0000 3.0000 -4.0000
v  17.0000 3.0000 -8.0000
v  17.0000 4.0000 -9.0000
v  17.0000 4.0000 -13.0000
v  17.0000 5.0000 -14.0000
v  17.0000 5.0000 -18.0000
# 80 vertices

vn 0.0000 -1.0000 -0.0000
vn 0.0000 1.0000 0.0000
vn 0.0000 1.0000 -0.0000
vn 0.0000 0.0000 1.0000
vn 1.0000 0.0000 -0.0000
vn 0.0000 -0.0000 -1.0000
vn -1.0000 0.0000 -0.0000
vn -0.0000 1.0000 0.0000
vn -0.7071 0.7071 -0.0000
vn 0.0000 -0.0000 1.0000
vn 0.0000 0.0000 -1.0000
vn -0.3162 0.9487 0.0000
vn -0.3162 0.9487 -0.0000
vn 0.1644 0.9864 0.0000
vn 0.5547 0.8321 0.0000
vn 0.8321 0.5547 0.0000
vn 0.8321 0.5547 -0.0000
vn -0.0000 -0.0000 -1.0000
vn 0.9487 0.3162 -0.0000
vn 0.9487 0.3162 0.0000
vn -0.0000 1.0000 -0.0000
vn -0.0083 1.0000 0.0000
vn 0.6000 0.8000 -0.0000
vn -0.0312 0.9995 0.0000
vn -0.5665 0.8240 0.0000
vn -0.0624 0.9981 0.0000
vn -0.4903 0.8716 0.0000
vn -0.0933 0.9956 0.0000
vn 0.0250 -0.9997 -0.0000
vn -0.1644 0.9864 0.0000
vn -0.4472 0.8944 0.0000
vn -0.5547 0.8321 0.0000
vn -0.6402 0.7682 -0.0000
vn 0.7071 0.7071 0.0000
vn 0.7071 0.7071 -0.0000
vn -0.0000 -0.0000 1.0000
vn 0.3162 0.9487 0.0000
vn 0.3162 0.9487 -0.0000
vn 0.4472 0.8944 0.0000
vn 0.6402 0.7682 0.0000
# 40 vertex normals

vt 0.0000 0.0000 0.0000
vt 1.0000 0.0000 0.0000
vt 1.0000 1.0000 0.0000
vt 0.0000 1.0000 0.0000
vt 1.0000 0.7348 0.0000
vt 0.8896 0.7785 0.0000
vt 0.8097 0.8102 0.0000
vt 0.7907 0.8177 0.0000
vt 0.7146 0.8478 0.0000
vt 0.6955 0.8554 0.0000
vt 0.6194 0.8855 0.0000
vt 0.6004 0.8930 0.0000
vt 0.5243 0.9232 0.0000
vt 0.5052 0.9307 0.0000
vt 0.4291 0.9608 0.0000
vt 0.4101 0.9684 0.0000
vt 0.3302 1.0000 0.0000
vt 0.1798 0.3875 0.0000
vt 0.0591 0.2668 0.0000
vt 0.7867 0.9944 0.0000
vt 0.7142 0.9220 0.0000
vt 0.6970 0.9048 0.0000
vt 0.6280 0.8358 0.0000
vt 0.6108 0.8186 0.0000
vt 0.5418 0.7496 0.0000
vt 0.5246 0.7324 0.0000
vt 0.4556 0.6634 0.0000
vt 0.4384 0.6461 0.0000
vt 0.3694 0.5772 0.0000
vt 0.3522 0.5599 0.0000
vt 0.2798 0.4875 0.0000
# 31 texture coords

g Box001
s 2
f 1/1/1 2/2/1 3/3/1 
f 3/3/1 4/4/1 1/1/1 
s 4
f 5/1/2 6/2/2 7/3/2 
f 7/3/2 8/4/3 5/1/2 
s 8
f 1/1/4 4/2/4 9/3/4 
f 9/3/4 10/4/4 1/1/4 
s 16
f 4/1/5 3/2/5 11/3/5 
f 11/3/5 9/4/5 4/1/5 
s 32
f 3/1/6 2/2/6 12/3/6 
f 12/3/6 11/4/6 3/1/6 
s 64
f 2/1/7 1/2/7 10/3/7 
f 10/3/7 12/4/7 2/1/7 
s off
f 10/1/3 9/2/3 13/3/3 
f 13/3/3 14/4/3 10/1/3 
f 9/1/2 11/2/2 15/3/2 
f 15/3/8 13/4/8 9/1/8 
f 11/1/3 12/2/3 16/3/3 
f 16/3/3 15/4/3 11/1/3 
f 12/1/2 10/2/2 14/3/2 
f 14/3/8 16/4/8 12/1/8 
f 14/1/6 13/2/6 17/3/6 
f 17/3/6 18/4/6 14/1/6 
f 13/1/7 15/2/7 19/3/7 
f 19/3/7 17/4/7 13/1/7 
f 15/1/4 16/2/4 20/3/4 
f 20/3/4 19/4/4 15/1/4 
f 16/1/5 14/2/5 18/3/5 
f 18/3/5 20/4/5 16/1/5 
f 18/1/2 17/2/2 21/3/2 
f 21/3/2 22/4/2 18/1/2 
f 23/2/9 24/3/9 25/4/9 
f 25/4/9 26/1/9 23/2/9 
f 27/1/2 28/2/2 29/3/2 
f 29/3/2 30/4/2 27/1/2 
f 22/1/4 21/2/4 6/3/4 
f 6/3/10 5/4/10 22/1/10 
f 21/1/5 31/2/5 7/3/5 
f 7/3/5 6/4/5 21/1/5 
f 31/1/11 32/2/11 8/3/11 
f 8/3/11 7/4/11 31/1/11 
f 32/1/12 22/2/12 5/3/12 
f 5/3/13 8/4/13 32/1/13 
f 20/1/2 18/2/2 33/3/2 
f 33/3/8 34/4/8 20/1/8 
f 18/1/8 22/2/8 35/3/8 
f 35/3/8 33/4/8 18/1/8 
f 22/1/8 32/2/8 36/3/8 
f 36/3/8 35/4/8 22/1/8 
f 32/1/8 20/2/8 36/3/8 
f 20/1/2 34/2/2 36/3/2 
f 34/1/7 33/2/7 37/3/7 
f 37/3/7 38/4/7 34/1/7 
f 33/1/4 35/2/4 39/3/4 
f 39/3/4 37/4/4 33/1/4 
f 35/1/14 36/2/14 40/3/14 
f 40/3/14 39/4/14 35/1/14 
f 36/1/11 34/2/11 38/3/11 
f 38/3/11 40/4/11 36/1/11 
f 38/1/7 37/2/7 41/3/7 
f 41/3/7 42/4/7 38/1/7 
f 37/1/4 39/2/4 43/3/4 
f 43/3/4 41/4/4 37/1/4 
f 39/1/15 40/2/15 44/3/15 
f 44/3/15 43/4/15 39/1/15 
f 40/1/11 38/2/11 42/3/11 
f 42/3/11 44/4/11 40/1/11 
f 42/1/7 41/2/7 45/3/7 
f 45/3/7 46/4/7 42/1/7 
f 41/1/4 43/2/4 47/3/4 
f 47/3/4 45/4/4 41/1/4 
f 43/1/16 44/2/16 48/3/16 
f 48/3/17 47/4/17 43/1/17 
f 44/1/11 42/2/11 46/3/11 
f 46/3/18 48/4/18 44/1/18 
f 46/1/7 45/2/7 28/3/7 
f 28/3/7 27/4/7 46/1/7 
f 45/1/4 47/2/4 29/3/4 
f 29/3/4 28/4/4 45/1/4 
f 47/1/19 48/2/19 30/3/19 
f 30/3/20 29/4/20 47/1/20 
f 48/1/11 46/2/11 27/3/11 
f 27/3/11 30/4/11 48/1/11 
f 19/1/2 20/2/2 23/3/2 
f 23/3/21 49/4/21 19/1/21 
f 20/1/2 32/5/2 50/6/2 
f 20/1/8 50/6/8 51/7/8 
f 20/1/3 51/7/3 52/8/3 
f 20/1/8 52/8/8 53/9/8 
f 20/1/3 53/9/3 54/10/3 
f 20/1/8 54/10/8 55/11/8 
f 20/1/3 55/11/3 56/12/3 
f 20/1/2 56/12/2 57/13/2 
f 20/1/3 57/13/3 58/14/3 
f 20/1/3 58/14/3 59/15/3 
f 20/1/8 59/15/8 24/16/8 
f 20/1/3 24/16/3 23/17/3 
f 32/1/2 31/2/2 60/3/2 
f 60/3/2 50/4/2 32/1/2 
f 31/18/3 21/19/3 17/1/3 
f 31/18/8 17/1/8 19/3/8 
f 31/18/2 19/3/2 49/20/2 
f 31/18/7 49/20/7 61/21/7 
f 31/18/5 61/21/5 62/22/5 
f 31/18/22 62/22/22 63/23/22 
f 31/18/23 63/23/23 64/24/23 
f 31/18/24 64/24/24 65/25/24 
f 31/18/25 65/25/25 66/26/25 
f 31/18/26 66/26/26 67/27/26 
f 31/18/27 67/27/27 68/28/27 
f 31/18/28 68/28/28 69/29/28 
f 31/18/29 69/29/29 70/30/29 
f 31/18/7 70/30/7 60/31/7 
f 50/2/30 71/3/30 72/4/30 
f 72/4/30 51/1/30 50/2/30 
f 51/2/3 70/3/3 69/4/3 
f 69/4/3 52/1/3 51/2/3 
f 52/2/13 73/3/13 74/4/13 
f 74/4/12 53/1/12 52/2/12 
f 53/2/2 68/3/2 67/4/2 
f 67/4/3 54/1/3 53/2/3 
f 54/2/31 75/3/31 76/4/31 
f 76/4/31 55/1/31 54/2/31 
f 55/2/2 66/3/2 65/4/2 
f 65/4/3 56/1/3 55/2/3 
f 56/2/32 77/3/32 78/4/32 
f 78/4/32 57/1/32 56/2/32 
f 57/2/3 64/3/3 63/4/3 
f 63/4/3 58/1/3 57/2/3 
f 58/2/33 79/3/33 80/4/33 
f 80/4/33 59/1/33 58/2/33 
f 59/2/21 62/3/21 61/4/21 
f 61/4/2 24/1/2 59/2/2 
f 49/1/6 23/2/6 26/3/6 
f 24/1/4 61/2/4 25/3/4 
f 61/1/34 49/2/34 26/3/34 
f 26/3/35 25/4/35 61/1/35 
f 50/1/36 60/2/36 71/3/36 
f 60/1/14 70/2/14 72/3/14 
f 72/3/14 71/4/14 60/1/14 
f 70/1/11 51/2/11 72/3/11 
f 69/1/37 68/2/37 74/3/37 
f 74/3/38 73/4/38 69/1/38 
f 68/1/18 53/2/18 74/3/18 
f 52/1/4 69/2/4 73/3/4 
f 67/1/39 66/2/39 76/3/39 
f 76/3/39 75/4/39 67/1/39 
f 66/1/18 55/2/18 76/3/18 
f 54/1/36 67/2/36 75/3/36 
f 65/1/15 64/2/15 78/3/15 
f 78/3/15 77/4/15 65/1/15 
f 64/1/11 57/2/11 78/3/11 
f 56/1/4 65/2/4 77/3/4 
f 63/1/40 62/2/40 80/3/40 
f 80/3/40 79/4/40 63/1/40 
f 62/1/18 59/2/18 80/3/18 
f 58/1/4 63/2/4 79/3/4 
# 156 faces

