# 3ds Max Wavefront OBJ Exporter v0.97b - (c)2007 guruware
# File Created: 21.08.2014 13:31:53

#
# object Box001
#

v  -30.0000 -1.0000 30.0000
v  -30.0000 -1.0000 -30.0000
v  30.0000 -1.0000 30.0000
v  17.0000 2.0000 19.0000
v  23.0000 2.0000 19.0000
v  17.0000 2.0000 12.0000
v  30.0000 9.0000 30.0000
v  -30.0000 9.0000 30.0000
v  30.0000 9.0000 -30.0000
v  30.0000 -1.0000 -30.0000
v  -30.0000 9.0000 -30.0000
v  -29.0000 9.0000 29.0000
v  29.0000 9.0000 -29.0000
v  29.0000 9.0000 29.0000
v  -29.0000 9.0000 -29.0000
v  -29.0000 -0.0000 29.0000
v  29.0000 -0.0000 29.0000
v  -29.0000 0.0000 -29.0000
v  29.0000 0.0000 -29.0000
v  17.0000 6.0000 -23.1995
v  11.0000 0.0000 -23.1995
v  17.0000 6.0000 -19.0000
v  -26.0000 9.0000 0.0000
v  -22.0000 9.0000 9.0000
v  -22.0000 9.0000 0.0000
v  11.0000 -0.0000 19.0000
v  23.0000 -0.0000 19.0000
v  23.0000 -0.0000 12.0000
v  23.0000 2.0000 12.0000
v  11.0000 0.0000 12.0000
v  -26.0000 -0.0000 9.0000
v  -10.0000 -0.0000 9.0000
v  -16.0000 1.0000 9.0000
v  -16.0000 1.0000 0.0000
v  -10.0000 0.0000 -0.0000
v  -26.0000 0.0000 -0.0000
v  -19.0000 3.0000 9.0000
v  -19.0000 3.0000 0.0000
v  -21.0000 6.0000 9.0000
v  -21.0000 6.0000 0.0000
v  -26.0000 9.0000 9.0000
v  11.0000 0.0000 2.0000
v  17.0000 1.0000 6.1995
v  17.0000 1.0000 2.0000
v  11.0000 0.0000 -3.0000
v  17.0000 2.0000 1.0000
v  17.0000 2.0000 -3.0000
v  11.0000 0.0000 -8.0000
v  17.0000 3.0000 -4.0000
v  17.0000 3.0000 -8.0000
v  11.0000 0.0000 -13.0000
v  17.0000 4.0000 -9.0000
v  17.0000 4.0000 -13.0000
v  11.0000 0.0000 -18.0000
v  17.0000 5.0000 -14.0000
v  17.0000 5.0000 -18.0000
v  23.0000 0.0000 -23.1995
v  11.0000 0.0000 -19.0000
v  23.0000 0.0000 -19.0000
v  11.0000 0.0000 6.1995
v  23.0000 -0.0000 6.1995
v  23.0000 -0.0000 2.0000
v  23.0000 -0.0000 1.0000
v  23.0000 0.0000 -3.0000
v  11.0000 0.0000 1.0000
v  23.0000 0.0000 -4.0000
v  23.0000 0.0000 -8.0000
v  11.0000 0.0000 -4.0000
v  23.0000 0.0000 -9.0000
v  23.0000 0.0000 -13.0000
v  11.0000 0.0000 -9.0000
v  23.0000 0.0000 -14.0000
v  23.0000 0.0000 -18.0000
v  11.0000 0.0000 -14.0000
# 74 vertices

vn 0.0000 -1.0000 -0.0000
vn 0.0000 1.0000 -0.0000
vn 0.0000 0.0000 1.0000
vn 1.0000 0.0000 -0.0000
vn 0.0000 -0.0000 -1.0000
vn -1.0000 0.0000 -0.0000
vn -0.0000 1.0000 0.0000
vn -0.7071 0.7071 -0.0000
vn 0.0000 1.0000 0.0000
vn 0.0000 0.0000 -1.0000
vn -0.3162 0.9487 -0.0000
vn 0.1644 0.9864 0.0000
vn 0.3677 0.9299 0.0000
vn -0.0000 0.0000 -1.0000
vn 0.7071 0.7071 0.0000
vn 0.8983 0.4394 0.0000
vn 0.9487 0.3162 0.0000
vn -0.1644 0.9864 0.0000
vn -0.4472 0.8944 0.0000
vn -0.5547 0.8321 0.0000
vn -0.6402 0.7682 -0.0000
vn 0.7071 0.7071 -0.0000
vn -0.0000 -0.0000 1.0000
vn 0.3162 0.9487 -0.0000
vn -0.0000 -0.0000 -1.0000
vn 0.4472 0.8944 0.0000
vn 0.5547 0.8321 0.0000
vn 0.6402 0.7682 0.0000
vn -0.3162 0.9487 0.0000
vn 0.3162 0.9487 0.0000
# 30 vertex normals

vt 1.0000 0.0000 0.5000
vt 1.0000 1.0000 0.5000
vt 0.0000 -0.0000 0.5000
vt 0.7833 0.1833 0.5500
vt 0.8833 0.1833 0.5500
vt 0.7833 0.3000 0.5500
vt -0.0000 0.5000 0.0000
vt 1.0000 0.6667 -0.0000
vt -0.0000 0.6667 0.0000
vt -0.0000 0.5000 1.0000
vt 1.0000 0.6667 1.0000
vt -0.0000 0.6667 1.0000
vt 0.0000 0.5000 1.0000
vt 0.0000 0.5000 0.0000
vt -0.0000 0.0000 0.6667
vt 1.0000 -0.0000 0.6667
vt 0.0167 0.0167 0.6667
vt 0.9833 0.9833 0.6667
vt 0.9833 0.0167 0.6667
vt 1.0000 1.0000 0.6667
vt 0.0167 0.9833 0.6667
vt 0.0000 1.0000 0.6667
vt 0.9833 0.6667 0.0167
vt 0.0167 0.6667 0.0167
vt 0.9833 0.5167 0.0167
vt 0.9833 0.6667 0.9833
vt 0.0167 0.6667 0.9833
vt 0.9833 0.5167 0.9833
vt 0.0167 0.5167 0.9833
vt 0.1133 0.6167 0.7833
vt 0.1133 0.5167 0.6833
vt 0.1833 0.6167 0.7833
vt 0.0667 0.5000 0.6667
vt 0.1333 0.3500 0.6667
vt 0.1333 0.5000 0.6667
vt 0.6833 0.5167 0.1833
vt 0.8833 0.5167 0.1833
vt 0.7833 0.5500 0.1833
vt 0.1833 0.5167 0.8833
vt 0.3000 0.5167 0.8833
vt 0.3000 0.5500 0.8833
vt 0.1833 0.5500 0.8833
vt 0.1167 0.5167 0.3000
vt 0.2167 0.5500 0.3000
vt 0.1167 0.5500 0.3000
vt 0.6833 0.3000 0.5167
vt 0.0667 0.5167 0.3500
vt 0.3333 0.5167 0.3500
vt 0.2333 0.5333 0.3500
vt 0.3333 0.3500 0.5167
vt 0.2333 0.5000 0.5333
vt 0.2333 0.3500 0.5333
vt 0.6667 0.5167 0.5000
vt 0.9333 0.5167 0.5000
vt 0.7667 0.5333 0.5000
vt 0.1833 0.5667 0.3500
vt 0.1833 0.5000 0.5667
vt 0.1833 0.3500 0.5667
vt 0.8167 0.5667 0.5000
vt 0.1500 0.6167 0.3500
vt 0.3500 0.5667 0.1833
vt 0.5000 0.6167 0.1500
vt 0.3500 0.6167 0.1500
vt 0.8500 0.6167 0.5000
vt 0.5000 0.5167 0.0667
vt 0.6500 0.6667 0.0667
vt 0.5000 0.6667 0.0667
vt 0.1333 0.6667 0.3500
vt 0.0667 0.6667 0.3500
vt 0.5000 0.6667 0.1333
vt 0.3500 0.6667 0.1333
vt 0.8667 0.6667 0.5000
vt 0.6833 0.4667 0.5167
vt 0.7833 0.3967 0.5333
vt 0.7833 0.4667 0.5333
vt 0.6833 0.5500 0.5167
vt 0.7833 0.4833 0.5500
vt 0.7833 0.5500 0.5500
vt 0.6833 0.6333 0.5167
vt 0.7833 0.5667 0.5667
vt 0.7833 0.6333 0.5667
vt 0.6833 0.7167 0.5167
vt 0.7833 0.6500 0.5833
vt 0.7833 0.7167 0.5833
vt 0.6833 0.8000 0.5167
vt 0.7833 0.7333 0.6000
vt 0.7833 0.8000 0.6000
vt 0.1167 0.5167 0.8867
vt 0.3167 0.5167 0.8867
vt 0.2167 0.6167 0.8867
vt 0.6833 0.5167 0.8167
vt 0.8833 0.5167 0.8167
vt 0.7833 0.6167 0.8167
vt 0.8833 0.8167 0.5167
vt 0.7833 0.8867 0.6167
vt 0.7833 0.8167 0.6167
vt 0.6833 0.5167 0.3967
vt 0.8833 0.5167 0.3967
vt 0.7833 0.5333 0.3967
vt 0.8833 0.3967 0.5167
vt 0.1167 0.5167 0.4667
vt 0.3167 0.5167 0.4667
vt 0.2167 0.5333 0.4667
vt 0.8833 0.4833 0.5167
vt 0.1167 0.5167 0.5500
vt 0.3167 0.5167 0.5500
vt 0.2167 0.5500 0.5500
vt 0.6833 0.5167 0.4833
vt 0.8833 0.5167 0.4833
vt 0.7833 0.5500 0.4833
vt 0.8833 0.5667 0.5167
vt 0.1167 0.5167 0.6333
vt 0.3167 0.5167 0.6333
vt 0.2167 0.5667 0.6333
vt 0.6833 0.5167 0.5667
vt 0.8833 0.5167 0.5667
vt 0.8833 0.6500 0.5167
vt 0.1167 0.5167 0.7167
vt 0.3167 0.5167 0.7167
vt 0.2167 0.5833 0.7167
vt 0.6833 0.5167 0.6500
vt 0.8833 0.5167 0.6500
vt 0.7833 0.5833 0.6500
vt 0.8833 0.7333 0.5167
vt 0.1167 0.5167 0.8000
vt 0.3167 0.5167 0.8000
vt 0.2167 0.6000 0.8000
vt 0.6833 0.5167 0.7333
vt 0.8833 0.5167 0.7333
vt 0.7833 0.6000 0.7333
vt 0.3333 0.5000 0.5167
vt 0.5000 0.5667 0.1833
vt 0.0667 0.3500 0.6667
vt 0.9333 0.6667 0.5000
vt 0.6500 0.5167 0.0667
vt 0.1833 0.5167 0.6833
vt 0.6833 0.7333 0.5167
vt 0.6833 0.6500 0.5167
vt 0.6833 0.5667 0.5167
vt 0.6833 0.4833 0.5167
vt 0.6833 0.3967 0.5167
vt 0.6833 0.1833 0.5167
vt 0.8833 0.3000 0.5500
vt 0.8833 0.8867 0.5167
vt 0.8833 0.8000 0.5167
vt 0.8833 0.7167 0.5167
vt 0.8833 0.6333 0.5167
vt 0.8833 0.5500 0.5167
vt 0.8833 0.4667 0.5167
vt 0.3167 0.5167 0.3000
vt 0.8833 0.5500 0.1833
vt 0.0167 0.5167 0.0167
vt 1.0000 0.5000 1.0000
vt 1.0000 0.5000 -0.0000
vt 0.0167 0.0167 0.5167
vt 0.9833 0.0167 0.5167
vt 0.0167 0.9833 0.5167
vt 0.9833 0.9833 0.5167
vt 0.0000 1.0000 0.5000
# 159 texture coords

g Box001
s off
f 1/1/1 2/2/1 3/3/1 
f 4/4/2 5/5/2 6/6/2 
f 1/7/3 7/8/3 8/9/3 
f 3/10/4 9/11/4 7/12/4 
f 10/13/5 11/11/5 9/12/5 
f 2/14/6 8/8/6 11/9/6 
f 8/15/2 7/16/2 12/17/2 
f 7/16/7 13/18/7 14/19/7 
f 9/20/2 15/21/2 13/18/2 
f 11/22/7 12/17/7 15/21/7 
f 12/23/5 14/24/5 16/25/5 
f 14/26/6 13/27/6 17/28/6 
f 13/26/3 18/29/3 19/28/3 
f 15/23/4 12/24/4 18/25/4 
f 20/30/8 21/31/8 22/32/8 
s 1
f 23/33/9 24/34/9 25/35/9 
s off
f 26/36/3 27/37/3 4/38/3 
f 27/39/4 28/40/4 29/41/4 
f 29/41/4 5/42/4 27/39/4 
f 28/43/10 6/44/10 29/45/10 
f 30/46/11 4/4/11 6/6/11 
s 2
f 31/47/3 32/48/3 33/49/3 
s 4
f 32/50/12 34/51/13 33/52/13 
s 2
f 35/53/10 36/54/10 34/55/14 
f 31/47/3 33/49/3 37/56/3 
s 4
f 33/52/13 38/57/15 37/58/15 
s 2
f 34/55/14 36/54/10 38/59/10 
f 31/47/3 37/56/3 39/60/3 
s 4
f 37/61/15 40/62/16 39/63/16 
s 2
f 38/59/10 36/54/10 40/64/10 
s 4
f 36/65/6 41/66/6 23/67/6 
s 2
f 31/47/3 24/68/3 41/69/3 
s 4
f 39/63/16 25/70/17 24/71/17 
s 2
f 40/64/10 36/54/10 25/72/10 
s off
f 42/73/18 43/74/18 44/75/18 
f 45/76/11 46/77/11 47/78/11 
f 48/79/19 49/80/19 50/81/19 
f 51/82/20 52/83/20 53/84/20 
f 54/85/21 55/86/21 56/87/21 
f 57/88/5 21/89/5 20/90/5 
f 58/91/3 59/92/3 22/93/3 
f 59/94/22 20/95/22 22/96/22 
f 60/97/23 61/98/23 43/99/23 
f 61/100/12 44/75/12 43/74/12 
f 62/101/10 42/102/10 44/103/10 
f 63/104/24 47/78/24 46/77/24 
f 64/105/25 45/106/25 47/107/25 
f 65/108/3 63/109/3 46/110/3 
f 66/111/26 50/81/26 49/80/26 
f 67/112/25 48/113/25 50/114/25 
f 68/115/23 66/116/23 49/80/23 
f 69/117/27 53/84/27 52/83/27 
f 70/118/10 51/119/10 53/120/10 
f 71/121/3 69/122/3 52/123/3 
f 72/124/28 56/87/28 55/86/28 
f 73/125/25 54/126/25 56/127/25 
f 74/128/3 72/129/3 55/130/3 
s 4
f 32/50/12 35/131/12 34/51/13 
f 33/52/13 34/51/13 38/57/15 
f 37/61/15 38/132/15 40/62/16 
f 39/63/16 40/62/16 25/70/17 
s 2
f 31/47/3 39/60/3 24/68/3 
s 1
f 23/33/9 41/133/9 24/34/9 
s 2
f 36/54/10 23/134/10 25/72/10 
s 4
f 36/65/6 31/135/6 41/66/6 
s off
f 21/31/8 58/136/8 22/32/8 
f 54/85/21 74/137/21 55/86/21 
f 51/82/20 71/138/20 52/83/20 
f 48/79/19 68/139/19 49/80/19 
f 45/76/29 65/140/29 46/77/29 
f 42/73/18 60/141/18 43/74/18 
f 30/46/29 26/142/29 4/4/29 
f 5/5/9 29/143/9 6/6/9 
f 59/94/15 57/144/15 20/95/15 
f 72/124/28 73/145/28 56/87/28 
f 69/117/27 70/146/27 53/84/27 
f 66/111/26 67/147/26 50/81/26 
f 63/104/30 64/148/30 47/78/30 
f 61/100/12 62/149/12 44/75/12 
f 28/43/10 30/150/10 6/44/10 
f 27/37/3 5/151/3 4/38/3 
f 7/16/2 14/19/2 12/17/2 
f 11/22/9 8/15/9 12/17/9 
f 9/20/2 11/22/2 15/21/2 
f 7/16/9 9/20/9 13/18/9 
f 13/26/3 15/27/3 18/29/3 
f 13/27/6 19/29/6 17/28/6 
f 14/24/5 17/152/5 16/25/5 
f 12/24/4 16/152/4 18/25/4 
f 10/13/5 2/153/5 11/11/5 
f 3/10/4 10/153/4 9/11/4 
f 1/7/3 3/154/3 7/8/3 
f 2/14/6 1/154/6 8/8/6 
f 16/155/9 17/156/9 18/157/9 
f 17/156/9 19/158/9 18/157/9 
f 2/2/1 10/159/1 3/3/1 
# 96 faces

